# xmcd
#
# Track frame offsets:
#       183
#       12108
#       23005
#       35620
#       46400
#       54808
#       67490
#       75858
#       90238
#       100248
#       115473
#       126990
#       139208
#
# Disc length: 2047 seconds
#
# Revision: 0
# Processed by: cddbd v1.4PL0 Copyright (c) Steve Scherf et al.
# Submitted via: CD-DA_X-Tractor v0.21
#
DISCID=a407fd0d
DTITLE=Trio Esperança - Grandes Sucessos
DYEAR=1900
DGENRE=
TTITLE0=Noves fora
TTITLE1=Vamos sacudir
TTITLE2=Replay
TTITLE3=A festa do Bolinha
TTITLE4=Chuva fina
TTITLE5=A vizinha do sobrado
TTITLE6=Por teu amor
TTITLE7=Este grande amor
TTITLE8=Aurora
TTITLE9=Arrasta a sandalia
TTITLE10=Quem ta com samba
TTITLE11=O retrato
TTITLE12=Filme triste
EXTD=
EXTT0=
EXTT1=
EXTT2=
EXTT3=
EXTT4=
EXTT5=
EXTT6=
EXTT7=
EXTT8=
EXTT9=
EXTT10=
EXTT11=
EXTT12=
PLAYORDER=
